<svg xmlns="http://www.w3.org/2000/svg" fill="none" viewBox="0 0 182 105">
  <circle cx="91" cy="50" r="50" fill="#17FDE2"/>
  <circle cx="164" cy="87" r="18" fill="#17FDE2"/>
  <path fill="#fff" d="m57.576 54.937 19.347 19.476c2.102 2.116 5.55 2.116 7.598 0l40.903-41.177a5.43 5.43 0 0 0 0-7.65 5.342 5.342 0 0 0-7.599 0L80.749 62.913 65.175 47.287a5.342 5.342 0 0 0-7.599 0 5.428 5.428 0 0 0 0 7.65ZM152.555 88.899l6.812 7.49c.74.814 1.955.814 2.676 0l14.402-15.837c.74-.813.74-2.128 0-2.942-.74-.813-1.936-.813-2.676 0l-13.055 14.356-5.483-6.01c-.74-.813-1.936-.813-2.676 0-.74.814-.74 2.129 0 2.943Z"/>
  <circle cx="18" cy="87" r="18" fill="#17FDE2"/>
  <path fill="#fff" d="m6.555 88.899 6.812 7.49c.74.814 1.955.814 2.676 0l14.402-15.837c.74-.813.74-2.128 0-2.942-.74-.813-1.936-.813-2.676 0L14.714 91.966l-5.483-6.01c-.74-.813-1.936-.813-2.676 0-.74.814-.74 2.129 0 2.943Z"/>
</svg>
