<svg xmlns="http://www.w3.org/2000/svg" viewBox="208.94 204.611 37.957 37.264">
  <path fill="#d1d6e6" d="M236.092 235.56a6.275 6.275 0 0 1 6.277 6.277h-8.051c-2.759 0-5.572-3.835-5.942-6.277Zm-9.261-2.985a11.77 11.77 0 0 0 4.39 9.3h-7.425a8.63 8.63 0 0 1-8.632-8.632V216.53a7.601 7.601 0 0 1-.007-.341c0-.657-.043-1.298-.043-2.127a12.772 12.772 0 0 0-4.524-9.375l-.002-.001c0-.084 3.871-.085 7.671-.063a8.594 8.594 0 0 1 8.239 6.33c.217.763.331 1.558.331 2.366v2.064l.079 5.824h-.079v11.37Zm20.066-16.92a5.384 5.384 0 0 1-5.381 5.381h-13.85a5.38 5.38 0 0 1 5.381-5.381Zm-37.954.033v.001h-.003Zm5.561.001v5.348h-4.661a.908.908 0 0 1-.637-.263.907.907 0 0 1-.263-.637v-4.448Z"/>
</svg>